<svg width="22.000000" height="21.000000" viewBox="0 0 22 21" fill="none" xmlns="http://www.w3.org/2000/svg" xmlns:xlink="http://www.w3.org/1999/xlink">
	<desc>
			Created with Pixso.
	</desc>
	<defs/>
	<path id="Vector" d="M19.24 8.75C20.36 9.88 21 11.4 21 13L21 20L17 20L17 13C17 12.46 16.78 11.96 16.41 11.58C16.03 11.21 15.53 11 15 11C14.46 11 13.96 11.21 13.58 11.58C13.21 11.96 13 12.46 13 13L13 20L9 20L9 13C9 11.4 9.63 9.88 10.75 8.75C11.88 7.63 13.4 7 15 7C16.59 7 18.11 7.63 19.24 8.75Z" stroke="#383638" stroke-opacity="1.000000" stroke-width="2.000000" stroke-linejoin="round"/>
	<path id="Vector" d="M5 8L5 20L1 20L1 8L5 8Z" stroke="#383638" stroke-opacity="1.000000" stroke-width="2.000000" stroke-linejoin="round"/>
	<path id="Vector" d="M3 5C1.89 5 1 4.1 1 3C1 1.89 1.89 1 3 1C4.1 1 5 1.89 5 3C5 4.1 4.1 5 3 5Z" stroke="#383638" stroke-opacity="1.000000" stroke-width="2.000000" stroke-linejoin="round"/>
</svg>
