<svg width="22.000000" height="22.000000" viewBox="0 0 22 22" fill="none" xmlns="http://www.w3.org/2000/svg" xmlns:xlink="http://www.w3.org/1999/xlink">
	<desc>
			Created with Pixso.
	</desc>
	<defs/>
	<path id="Vector" d="M16 1C18.76 1 21 3.23 21 6L21 16C21 18.76 18.76 21 16 21L6 21C3.23 21 1 18.76 1 16L1 6C1 3.23 3.23 1 6 1L16 1Z" stroke="#383638" stroke-opacity="1.000000" stroke-width="2.000000" stroke-linejoin="round"/>
	<path id="Vector" d="M14.59 12.79C14.2 13.54 13.59 14.15 12.84 14.52C12.09 14.9 11.23 15.03 10.4 14.9C9.57 14.77 8.8 14.37 8.21 13.78C7.61 13.18 7.22 12.42 7.09 11.59C6.96 10.76 7.09 9.9 7.47 9.15C7.84 8.4 8.45 7.79 9.2 7.4C9.94 7.01 10.79 6.87 11.62 6.99C12.47 7.12 13.26 7.52 13.87 8.12C14.47 8.73 14.87 9.52 15 10.36C15.12 11.2 14.98 12.05 14.59 12.79Z" stroke="#383638" stroke-opacity="1.000000" stroke-width="2.000000" stroke-linejoin="round"/>
	<path id="Vector" d="M16.5 5.5L16.51 5.5" stroke="#383638" stroke-opacity="1.000000" stroke-width="2.000000" stroke-linejoin="round" stroke-linecap="round"/>
</svg>
