<svg width="24.018311" height="19.944092" viewBox="0 0 24.0183 19.9441" fill="none" xmlns="http://www.w3.org/2000/svg" xmlns:xlink="http://www.w3.org/1999/xlink">
	<desc>
			Created with Pixso.
	</desc>
	<defs/>
	<path id="Vector" d="M19.86 2.54C19.25 1.84 18.45 1.35 17.56 1.13C16.67 0.91 15.73 0.96 14.88 1.29C14.02 1.62 13.28 2.2 12.77 2.96C12.25 3.72 11.98 4.62 12 5.54L12 6.54C10.24 6.58 8.5 6.19 6.93 5.4C5.36 4.61 4.01 3.44 3 2.01C3 2.01 -1 11.01 8 15.01C5.94 16.4 3.48 17.1 1 17.01C10 22.01 21 17.01 21 5.51C20.99 5.23 20.97 4.95 20.92 4.68C21.94 3.67 22.66 2.4 23 1.01C22.04 1.68 20.98 2.2 19.86 2.54Z" stroke="#383638" stroke-opacity="1.000000" stroke-width="2.000000" stroke-linejoin="round"/>
</svg>
