<svg width="53.229248" height="50.000244" viewBox="0 0 53.2292 50.0002" fill="none" xmlns="http://www.w3.org/2000/svg" xmlns:xlink="http://www.w3.org/1999/xlink">
	<desc>
			Created with Pixso.
	</desc>
	<defs/>
	<path id="Vector" d="M33.26 1.87L45.53 23.12C46.2 24.28 46.2 25.71 45.53 26.87L33.26 48.12C32.59 49.28 31.36 50 30.02 50L37.21 50C38.55 50 39.78 49.28 40.45 48.12L52.72 26.87C53.39 25.71 53.39 24.28 52.72 23.12L40.45 1.87C39.78 0.71 38.55 0 37.21 0L30.02 0C31.36 0 32.59 0.71 33.26 1.87Z" fill="#39435A" fill-opacity="1.000000" fill-rule="nonzero"/>
	<path id="Vector" d="M33.26 1.87L33.81 2.82C34.74 2.83 35.7 2.91 36.69 3.05C38.65 3.34 40.46 3.86 42 4.55L40.45 1.87C39.78 0.71 38.55 0 37.21 0L30.02 0C31.36 0 32.59 0.71 33.26 1.87Z" fill="#2C374C" fill-opacity="1.000000" fill-rule="nonzero"/>
	<path id="Vector" d="M19.42 1.87L31.69 23.12C32.36 24.28 32.36 25.71 31.69 26.87L19.42 48.12C18.75 49.28 17.51 50 16.17 50L23.37 50C24.7 50 25.94 49.28 26.61 48.12L38.88 26.87C39.55 25.71 39.55 24.28 38.88 23.12L26.61 1.87C25.94 0.71 24.7 0 23.36 0L16.17 0C17.51 0 18.75 0.71 19.42 1.87Z" fill="#39435A" fill-opacity="1.000000" fill-rule="nonzero"/>
	<path id="Vector" d="M19.96 48.12L7.69 26.87C7.02 25.71 7.02 24.28 7.69 23.12L19.96 1.87C20.63 0.71 21.86 0 23.2 0L16.01 0C14.67 0 13.44 0.71 12.77 1.87L0.5 23.12C-0.17 24.28 -0.17 25.71 0.5 26.87L12.77 48.12C13.44 49.28 14.67 49.99 16.01 49.99L23.2 49.99C21.86 49.99 20.63 49.28 19.96 48.12Z" fill="#435F94" fill-opacity="1.000000" fill-rule="nonzero"/>
	<path id="Vector" d="M27.05 48.12L14.78 26.87C14.11 25.71 14.11 24.28 14.78 23.12L27.05 1.87C27.72 0.71 28.95 0 30.29 0L23.1 0C21.76 0 20.53 0.71 19.86 1.87L7.59 23.12C6.92 24.28 6.92 25.71 7.59 26.87L19.86 48.12C20.53 49.28 21.76 50 23.1 50L30.29 50C28.95 49.99 27.72 49.28 27.05 48.12Z" fill="#377DFF" fill-opacity="1.000000" fill-rule="nonzero"/>
	<path id="Vector" d="M34.27 48.12L22 26.87C21.33 25.71 21.33 24.28 22 23.12L34.27 1.87C34.94 0.71 36.18 0 37.52 0L30.33 0C28.99 0 27.75 0.71 27.08 1.87L14.81 23.12C14.14 24.28 14.14 25.71 14.81 26.87L27.08 48.12C27.75 49.28 28.99 50 30.33 50L37.52 50C36.18 49.99 34.94 49.28 34.27 48.12Z" fill="#37DBFF" fill-opacity="1.000000" fill-rule="nonzero"/>
</svg>
