<svg width="41.500000" height="41.500000" viewBox="0 0 41.5 41.5" fill="none" xmlns="http://www.w3.org/2000/svg" xmlns:xlink="http://www.w3.org/1999/xlink">
	<desc>
			Created with Pixso.
	</desc>
	<defs/>
	<path id="Vector" d="M20.75 26C17.85 26 15.5 23.64 15.5 20.75C15.5 17.85 17.85 15.5 20.75 15.5C23.64 15.5 26 17.85 26 20.75C26 23.64 23.64 26 20.75 26Z" stroke="#0B0F15" stroke-opacity="1.000000" stroke-width="3.000000" stroke-linejoin="round"/>
	<path id="Vector" d="M33.5 27.68C33.6 28.24 33.87 28.77 34.27 29.18L34.38 29.29C34.7 29.61 34.96 30 35.14 30.42C35.31 30.85 35.4 31.3 35.4 31.76C35.4 32.22 35.31 32.68 35.14 33.1C34.96 33.53 34.7 33.91 34.38 34.24C34.05 34.56 33.67 34.82 33.24 35C32.82 35.17 32.36 35.26 31.9 35.26C31.44 35.26 30.99 35.17 30.56 35C30.14 34.82 29.75 34.56 29.42 34.24L29.32 34.13C28.91 33.73 28.38 33.46 27.82 33.36C27.25 33.25 26.66 33.32 26.13 33.56C25.62 33.78 25.18 34.15 24.87 34.61C24.55 35.08 24.39 35.63 24.38 36.2L24.38 36.5C24.38 37.42 24.02 38.31 23.36 38.97C22.7 39.63 21.81 40 20.88 40C19.96 40 19.07 39.63 18.41 38.97C17.75 38.31 17.38 37.42 17.38 36.5L17.38 36.34C17.37 35.76 17.18 35.2 16.85 34.73C16.51 34.25 16.04 33.9 15.5 33.7C14.97 33.46 14.38 33.39 13.81 33.5C13.25 33.6 12.72 33.87 12.31 34.27L12.21 34.38C11.88 34.7 11.49 34.96 11.07 35.14C10.64 35.31 10.19 35.4 9.73 35.4C9.27 35.4 8.81 35.31 8.39 35.14C7.96 34.96 7.58 34.7 7.25 34.38C6.93 34.05 6.67 33.67 6.49 33.24C6.32 32.82 6.23 32.36 6.23 31.9C6.23 31.44 6.32 30.99 6.49 30.56C6.67 30.14 6.93 29.75 7.25 29.43L7.36 29.32C7.76 28.91 8.03 28.38 8.13 27.82C8.24 27.25 8.17 26.66 7.93 26.14C7.71 25.62 7.34 25.18 6.88 24.87C6.41 24.55 5.86 24.39 5.29 24.39L5 24.39C4.07 24.39 3.18 24.02 2.52 23.36C1.86 22.7 1.5 21.81 1.5 20.89C1.5 19.96 1.86 19.07 2.52 18.41C3.18 17.75 4.07 17.39 5 17.39L5.15 17.39C5.73 17.37 6.29 17.18 6.76 16.85C7.24 16.51 7.6 16.04 7.8 15.5C8.03 14.97 8.1 14.38 7.99 13.81C7.89 13.25 7.62 12.72 7.22 12.31L7.11 12.21C6.79 11.88 6.53 11.49 6.35 11.07C6.18 10.64 6.09 10.19 6.09 9.73C6.09 9.27 6.18 8.81 6.35 8.39C6.53 7.96 6.79 7.58 7.11 7.25C7.44 6.93 7.82 6.67 8.25 6.49C8.67 6.32 9.13 6.23 9.59 6.23C10.05 6.23 10.5 6.32 10.93 6.49C11.35 6.67 11.74 6.93 12.07 7.25L12.17 7.36C12.58 7.76 13.11 8.03 13.67 8.13C14.24 8.24 14.83 8.17 15.36 7.93L15.5 7.93C16.01 7.71 16.45 7.34 16.77 6.88C17.08 6.41 17.24 5.86 17.25 5.29L17.25 5C17.25 4.07 17.61 3.18 18.27 2.52C18.93 1.86 19.82 1.5 20.75 1.5C21.67 1.5 22.56 1.86 23.22 2.52C23.88 3.18 24.25 4.07 24.25 5L24.25 5.15C24.25 5.72 24.41 6.27 24.73 6.74C25.04 7.2 25.48 7.57 26 7.8C26.52 8.03 27.11 8.1 27.68 7.99C28.24 7.89 28.77 7.62 29.18 7.22L29.29 7.11C29.61 6.79 30 6.53 30.42 6.35C30.85 6.18 31.3 6.09 31.76 6.09C32.22 6.09 32.68 6.18 33.1 6.35C33.53 6.53 33.91 6.79 34.24 7.11C34.56 7.44 34.82 7.82 35 8.25C35.17 8.67 35.26 9.13 35.26 9.59C35.26 10.05 35.17 10.5 35 10.93C34.82 11.35 34.56 11.74 34.24 12.06L34.13 12.17C33.73 12.58 33.46 13.11 33.36 13.67C33.25 14.24 33.32 14.83 33.56 15.36L33.56 15.5C33.78 16.01 34.15 16.45 34.61 16.77C35.08 17.08 35.63 17.24 36.2 17.25L36.5 17.25C37.42 17.25 38.31 17.61 38.97 18.27C39.63 18.93 40 19.82 40 20.75C40 21.67 39.63 22.56 38.97 23.22C38.31 23.88 37.42 24.25 36.5 24.25L36.34 24.25C35.77 24.25 35.22 24.41 34.75 24.73C34.29 25.04 33.92 25.48 33.7 26C33.46 26.52 33.39 27.11 33.5 27.68Z" stroke="#0B0F15" stroke-opacity="1.000000" stroke-width="3.000000" stroke-linejoin="round"/>
</svg>
